<svg width="340" height="57" viewBox="0 0 340 57" fill="none" xmlns="http://www.w3.org/2000/svg">
<rect width="340" height="57" fill="#E67722"/>
<circle cx="16.5" cy="28.5" r="6.5" fill="white"/>
<path d="M34.6 45V12.6H40.0225V39.915H54.3325V45H34.6ZM58.5941 45V12.6H64.0166V45H58.5941ZM78.0464 45L67.8314 12.6H73.4114L81.9614 39.735L90.6239 12.6H96.2039L85.9889 45H78.0464ZM99.5846 45V12.6H120.51V17.685H105.007V25.6725H117.81V30.7575H105.007V39.915H120.51V45H99.5846ZM140.542 45V18.5175L134.467 22.23V16.245L140.542 12.6H146.077V45H140.542ZM168.103 45V39.645H153.748V34.5825L164.121 12.6H170.308L159.936 34.5825H168.103V26.145H173.593V34.5825H176.631V39.645H173.593V45H168.103ZM217.045 45H211.555V22.1625L196.525 45H191.035V12.6H196.525V35.4375L211.555 12.6H217.045V45ZM223.335 45V12.6H228.757V26.1H235.012V31.5H228.757V45H223.335ZM247.77 45.675C245.625 45.675 243.705 45.2775 242.01 44.4825C240.33 43.6875 238.905 42.5475 237.735 41.0625C236.565 39.5775 235.672 37.8 235.057 35.73C234.442 33.645 234.135 31.335 234.135 28.8C234.135 26.25 234.442 23.94 235.057 21.87C235.672 19.8 236.565 18.0225 237.735 16.5375C238.905 15.0525 240.33 13.9125 242.01 13.1175C243.705 12.3225 245.625 11.925 247.77 11.925C249.915 11.925 251.835 12.3225 253.53 13.1175C255.225 13.9125 256.657 15.0525 257.827 16.5375C258.997 18.0225 259.89 19.8 260.505 21.87C261.12 23.94 261.427 26.25 261.427 28.8C261.427 31.365 261.12 33.6825 260.505 35.7525C259.89 37.8225 258.997 39.6 257.827 41.085C256.657 42.57 255.225 43.71 253.53 44.505C251.835 45.285 249.915 45.675 247.77 45.675ZM247.77 40.5675C249.12 40.5675 250.29 40.2825 251.28 39.7125C252.27 39.1275 253.087 38.31 253.732 37.26C254.377 36.195 254.865 34.95 255.195 33.525C255.525 32.085 255.69 30.51 255.69 28.8C255.69 27.09 255.525 25.5225 255.195 24.0975C254.88 22.6575 254.4 21.4125 253.755 20.3625C253.11 19.3125 252.285 18.5025 251.28 17.9325C250.29 17.3475 249.12 17.055 247.77 17.055C246.435 17.055 245.272 17.3475 244.282 17.9325C243.292 18.5025 242.467 19.3125 241.807 20.3625C241.162 21.4125 240.675 22.6575 240.345 24.0975C240.03 25.5225 239.872 27.09 239.872 28.8C239.872 30.51 240.03 32.085 240.345 33.525C240.675 34.95 241.162 36.195 241.807 37.26C242.452 38.31 243.27 39.1275 244.26 39.7125C245.265 40.2825 246.435 40.5675 247.77 40.5675ZM265.918 45V12.6H271.34V26.235H286.685V12.6H292.085V45H286.685V31.32H271.34V45H265.918ZM321.793 45H316.393V33.6825H308.023L305.706 33.48C302.946 33.03 300.898 31.86 299.563 29.97C298.228 28.065 297.561 25.7925 297.561 23.1525C297.561 21.3675 297.861 19.7475 298.461 18.2925C299.061 16.8225 299.968 15.6075 301.183 14.6475C302.398 13.6875 303.943 13.065 305.818 12.78C306.253 12.705 306.711 12.66 307.191 12.645C307.686 12.615 308.091 12.6 308.406 12.6H321.793V45ZM303.186 45H297.043L304.063 30.6L309.576 31.815L303.186 45ZM316.393 28.62V17.685H308.631C308.331 17.685 307.993 17.7 307.618 17.73C307.243 17.745 306.898 17.7975 306.583 17.8875C305.683 18.1125 304.971 18.51 304.446 19.08C303.936 19.65 303.576 20.3025 303.366 21.0375C303.156 21.7575 303.051 22.4625 303.051 23.1525C303.051 23.8425 303.156 24.5475 303.366 25.2675C303.576 25.9875 303.936 26.6325 304.446 27.2025C304.971 27.7725 305.683 28.17 306.583 28.395C306.898 28.485 307.243 28.545 307.618 28.575C307.993 28.605 308.331 28.62 308.631 28.62H316.393Z" fill="white"/>
</svg>
